# xmcd
#
# Track frame offsets:
#	150
#	21311
#	44282
#	72087
#	91865
#	110331
#	124797
#	146876
#
# Disc length: 2207 seconds
#
# Revision: 0
# Processed by: cddbd v1.5.2PL0 Copyright (c) Steve Scherf et al.
# Submitted via: audiograbber 1.83.01
#
DISCID=6b089d08
DTITLE=Bachman-Turner Overdrive - Classic Album Set [2016] [CD 1) - Bachman-Tur
DTITLE=ner Overdrive
DYEAR=1973
DGENRE=Rock
TTITLE0=Gimme Your Money Please
TTITLE1=Hold Back The Water
TTITLE2=Blue Collar
TTITLE3=Little Gandy Dancer
TTITLE4=Stayed Awake All Night
TTITLE5=Down And Out Man
TTITLE6=Don't Get Yourself In Trouble
TTITLE7=Thank You For The Feelin'
EXTD=
EXTT0=
EXTT1=
EXTT2=
EXTT3=
EXTT4=
EXTT5=
EXTT6=
EXTT7=
PLAYORDER=
